<svg xmlns="http://www.w3.org/2000/svg" width="251.149" height="79.999" viewBox="0 0 251.149 79.999">
  <g id="Stroke_Effect" data-name="Stroke Effect" transform="translate(0 -0.001)" fill="none" stroke-linejoin="round">
    <path d="M213.382,79.771H37.766L37.552,80l-.215-.229H37.3v-.037L0,40,37.3.266V0h176.29v0l0,0,37.552,40L213.6,80Z" stroke="none"/>
    <path d="M 212.9459686279297 77.77149963378906 L 248.4053802490234 39.99962997436523 L 212.7313995361328 2.000899791717529 L 38.41720199584961 2.000899791717529 L 2.743226051330566 39.99962997436523 L 38.20264434814453 77.77149963378906 L 212.9459686279297 77.77149963378906 M 213.5970001220703 80.00009918212891 L 213.3824005126953 79.77149963378906 L 37.76620101928711 79.77149963378906 L 37.55160140991211 80.00009918212891 L 37.33700180053711 79.77149963378906 L 37.30230331420898 79.77149963378906 L 37.30230331420898 79.73453521728516 L 2.673339849934564e-06 39.99959945678711 L 37.30230331420898 0.26643306016922 L 37.30230331420898 0.0008997253607958555 L 213.5924987792969 0.0008997253607958555 L 213.5924987792969 0.005699725355952978 L 213.5970001220703 0.0008997253607958555 L 251.1486053466797 39.99959945678711 L 213.5970001220703 80.00009918212891 Z" stroke="none" fill="#ead6b2"/>
  </g>
</svg>
