<svg xmlns="http://www.w3.org/2000/svg" width="383.999" height="79.999" viewBox="0 0 383.999 79.999">
  <g id="Stroke_Effect" data-name="Stroke Effect" transform="translate(66.362 -0.001)" fill="#ead6b2" stroke-linejoin="round">
    <path d="M 278.7055969238281 78.77149963378906 L -28.59620094299316 78.77149963378906 L -64.99079132080078 39.99961471557617 L -28.37800407409668 1.00089967250824 L 278.7055969238281 1.00089967250824 L 278.7055969238281 2.931399822235107 L 280.0853881835938 1.461858987808228 L 316.265380859375 39.99961471557617 L 280.0853881835938 78.53912353515625 L 278.7055969238281 77.06960296630859 L 278.7055969238281 78.77149963378906 Z" stroke="none"/>
    <path d="M 278.88525390625 77.77149963378906 C 278.9129028320312 77.75906372070312 278.9410095214844 77.7471923828125 278.9693908691406 77.73594665527344 C 279.1736145019531 77.65512084960938 279.3853454589844 77.60986328125 279.596923828125 77.59840393066406 L 314.8937683105469 39.99962997436523 L 279.5969543457031 2.402597188949585 C 279.3854370117188 2.391120433807373 279.1735534667969 2.345863342285156 278.9693908691406 2.265049695968628 C 278.7987060546875 2.197475671768188 278.6411437988281 2.108108043670654 278.4993591308594 2.000899791717529 L -27.94519996643066 2.000899791717529 L -63.61917877197266 39.99962997436523 L -28.15976524353027 77.77149963378906 L 278.88525390625 77.77149963378906 M 280.08544921875 80.00009918212891 L 279.7055969238281 79.59555053710938 L 279.7055969238281 79.77149963378906 L -28.59620094299316 79.77149963378906 L -28.81080055236816 80.00009918212891 L -66.36240386962891 39.99959945678711 L -28.81170082092285 0.0008997253607958555 L 279.7055969238281 0.0008997253607958555 L 279.7055969238281 0.4054497182369232 L 280.08544921875 0.0008997253607958555 L 317.6369934082031 39.99959945678711 L 280.08544921875 80.00009918212891 Z" stroke="none" fill="#cfa378"/>
  </g>
</svg>
